<mxfile host="app.diagrams.net" modified="2021-02-25T01:34:47.100Z" agent="5.0 (Windows NT 10.0; Win64; x64) AppleWebKit/537.36 (KHTML, like Gecko) Chrome/88.0.4324.182 Safari/537.36" etag="7kQASRmtALFWgW-1mTuc" version="14.2.9" type="github">
  <diagram name="Page-2" id="JZp0LYgIPEKNpuG5PZDB">
    <mxGraphModel dx="813" dy="435" grid="1" gridSize="10" guides="1" tooltips="1" connect="1" arrows="1" fold="1" page="1" pageScale="1" pageWidth="850" pageHeight="1100" math="0" shadow="0">
      <root>
        <mxCell id="TkWctTb4kfssdJq24P7h-0" />
        <mxCell id="TkWctTb4kfssdJq24P7h-1" parent="TkWctTb4kfssdJq24P7h-0" />
        <mxCell id="TkWctTb4kfssdJq24P7h-2" value="v1.0" style="text;html=1;strokeColor=none;fillColor=none;align=center;verticalAlign=middle;whiteSpace=wrap;rounded=0;fontStyle=1" parent="TkWctTb4kfssdJq24P7h-1" vertex="1">
          <mxGeometry x="600" y="20" width="40" height="20" as="geometry" />
        </mxCell>
        <mxCell id="TkWctTb4kfssdJq24P7h-3" value="Release Candidate" style="text;html=1;strokeColor=none;fillColor=none;align=center;verticalAlign=middle;whiteSpace=wrap;rounded=0;fontStyle=3" parent="TkWctTb4kfssdJq24P7h-1" vertex="1">
          <mxGeometry x="360" y="20" width="40" height="20" as="geometry" />
        </mxCell>
        <mxCell id="TkWctTb4kfssdJq24P7h-4" value="Feature A" style="text;html=1;strokeColor=none;fillColor=none;align=center;verticalAlign=middle;whiteSpace=wrap;rounded=0;fontColor=#999999;fontStyle=1" parent="TkWctTb4kfssdJq24P7h-1" vertex="1">
          <mxGeometry x="200" y="20" width="40" height="20" as="geometry" />
        </mxCell>
        <mxCell id="TkWctTb4kfssdJq24P7h-5" value="Develop" style="text;html=1;strokeColor=none;fillColor=none;align=center;verticalAlign=middle;whiteSpace=wrap;rounded=0;fontStyle=1" parent="TkWctTb4kfssdJq24P7h-1" vertex="1">
          <mxGeometry x="440" y="20" width="40" height="20" as="geometry" />
        </mxCell>
        <mxCell id="TkWctTb4kfssdJq24P7h-6" value="Hotfixes" style="text;html=1;strokeColor=none;fillColor=none;align=center;verticalAlign=middle;whiteSpace=wrap;rounded=0;fontColor=#999999;fontStyle=1" parent="TkWctTb4kfssdJq24P7h-1" vertex="1">
          <mxGeometry x="110" y="20" width="60" height="20" as="geometry" />
        </mxCell>
        <mxCell id="TkWctTb4kfssdJq24P7h-7" value="" style="edgeStyle=none;rounded=0;orthogonalLoop=1;jettySize=auto;html=1;fontSize=10;fontColor=#000000;" parent="TkWctTb4kfssdJq24P7h-1" source="TkWctTb4kfssdJq24P7h-8" target="TkWctTb4kfssdJq24P7h-51" edge="1">
          <mxGeometry relative="1" as="geometry" />
        </mxCell>
        <mxCell id="TkWctTb4kfssdJq24P7h-8" value="" style="ellipse;whiteSpace=wrap;html=1;aspect=fixed;fillColor=#008a00;strokeColor=#005700;fontColor=#ffffff;" parent="TkWctTb4kfssdJq24P7h-1" vertex="1">
          <mxGeometry x="615" y="50" width="10" height="10" as="geometry" />
        </mxCell>
        <mxCell id="TkWctTb4kfssdJq24P7h-9" value="" style="edgeStyle=none;rounded=0;orthogonalLoop=1;jettySize=auto;html=1;fontSize=10;fontColor=#000000;" parent="TkWctTb4kfssdJq24P7h-1" source="TkWctTb4kfssdJq24P7h-10" target="TkWctTb4kfssdJq24P7h-41" edge="1">
          <mxGeometry relative="1" as="geometry" />
        </mxCell>
        <mxCell id="TkWctTb4kfssdJq24P7h-10" value="" style="ellipse;whiteSpace=wrap;html=1;aspect=fixed;fillColor=#ffcd28;strokeColor=#d79b00;gradientColor=#ffa500;" parent="TkWctTb4kfssdJq24P7h-1" vertex="1">
          <mxGeometry x="455" y="50" width="10" height="10" as="geometry" />
        </mxCell>
        <mxCell id="TkWctTb4kfssdJq24P7h-12" value="Feature B" style="text;html=1;strokeColor=none;fillColor=none;align=center;verticalAlign=middle;whiteSpace=wrap;rounded=0;fontColor=#999999;fontStyle=1" parent="TkWctTb4kfssdJq24P7h-1" vertex="1">
          <mxGeometry x="280" y="20" width="40" height="20" as="geometry" />
        </mxCell>
        <mxCell id="TkWctTb4kfssdJq24P7h-13" value="" style="ellipse;whiteSpace=wrap;html=1;aspect=fixed;fillColor=#d80073;strokeColor=#A50040;fontColor=#ffffff;" parent="TkWctTb4kfssdJq24P7h-1" vertex="1">
          <mxGeometry x="215" y="100" width="10" height="10" as="geometry" />
        </mxCell>
        <mxCell id="TkWctTb4kfssdJq24P7h-15" value="v1.0.0" style="text;html=1;strokeColor=#005700;fillColor=#008a00;align=center;verticalAlign=middle;whiteSpace=wrap;rounded=0;fontSize=10;fontColor=#ffffff;" parent="TkWctTb4kfssdJq24P7h-1" vertex="1">
          <mxGeometry x="630" y="45" width="40" height="20" as="geometry" />
        </mxCell>
        <mxCell id="TkWctTb4kfssdJq24P7h-16" value="" style="ellipse;whiteSpace=wrap;html=1;aspect=fixed;fillColor=#d80073;strokeColor=#A50040;fontColor=#ffffff;" parent="TkWctTb4kfssdJq24P7h-1" vertex="1">
          <mxGeometry x="295" y="100" width="10" height="10" as="geometry" />
        </mxCell>
        <mxCell id="TkWctTb4kfssdJq24P7h-18" value="" style="ellipse;whiteSpace=wrap;html=1;aspect=fixed;fillColor=#d80073;strokeColor=#A50040;fontColor=#ffffff;" parent="TkWctTb4kfssdJq24P7h-1" vertex="1">
          <mxGeometry x="295" y="140" width="10" height="10" as="geometry" />
        </mxCell>
        <mxCell id="TkWctTb4kfssdJq24P7h-19" value="" style="ellipse;whiteSpace=wrap;html=1;aspect=fixed;fillColor=#d80073;strokeColor=#A50040;fontColor=#ffffff;" parent="TkWctTb4kfssdJq24P7h-1" vertex="1">
          <mxGeometry x="215" y="165" width="10" height="10" as="geometry" />
        </mxCell>
        <mxCell id="TkWctTb4kfssdJq24P7h-20" value="" style="ellipse;whiteSpace=wrap;html=1;aspect=fixed;fillColor=#d80073;strokeColor=#A50040;fontColor=#ffffff;" parent="TkWctTb4kfssdJq24P7h-1" vertex="1">
          <mxGeometry x="215" y="140" width="10" height="10" as="geometry" />
        </mxCell>
        <mxCell id="TkWctTb4kfssdJq24P7h-21" value="" style="endArrow=classic;html=1;exitX=0.5;exitY=1;exitDx=0;exitDy=0;entryX=0.5;entryY=0;entryDx=0;entryDy=0;elbow=vertical;" parent="TkWctTb4kfssdJq24P7h-1" source="TkWctTb4kfssdJq24P7h-13" target="TkWctTb4kfssdJq24P7h-20" edge="1">
          <mxGeometry width="50" height="50" relative="1" as="geometry">
            <mxPoint x="305" y="95" as="sourcePoint" />
            <mxPoint x="235" y="115" as="targetPoint" />
          </mxGeometry>
        </mxCell>
        <mxCell id="TkWctTb4kfssdJq24P7h-22" value="" style="endArrow=classic;html=1;exitX=0.5;exitY=1;exitDx=0;exitDy=0;entryX=0.5;entryY=0;entryDx=0;entryDy=0;elbow=vertical;" parent="TkWctTb4kfssdJq24P7h-1" source="TkWctTb4kfssdJq24P7h-20" target="TkWctTb4kfssdJq24P7h-19" edge="1">
          <mxGeometry width="50" height="50" relative="1" as="geometry">
            <mxPoint x="315" y="105" as="sourcePoint" />
            <mxPoint x="245" y="125" as="targetPoint" />
          </mxGeometry>
        </mxCell>
        <mxCell id="TkWctTb4kfssdJq24P7h-23" value="" style="endArrow=classic;html=1;exitX=0.5;exitY=1;exitDx=0;exitDy=0;entryX=0.5;entryY=0;entryDx=0;entryDy=0;elbow=vertical;" parent="TkWctTb4kfssdJq24P7h-1" source="TkWctTb4kfssdJq24P7h-16" target="TkWctTb4kfssdJq24P7h-18" edge="1">
          <mxGeometry width="50" height="50" relative="1" as="geometry">
            <mxPoint x="485" y="115" as="sourcePoint" />
            <mxPoint x="415" y="135" as="targetPoint" />
          </mxGeometry>
        </mxCell>
        <mxCell id="TkWctTb4kfssdJq24P7h-24" value="" style="edgeStyle=none;rounded=0;orthogonalLoop=1;jettySize=auto;html=1;fontSize=10;fontColor=#000000;" parent="TkWctTb4kfssdJq24P7h-1" source="TkWctTb4kfssdJq24P7h-25" target="TkWctTb4kfssdJq24P7h-30" edge="1">
          <mxGeometry relative="1" as="geometry" />
        </mxCell>
        <mxCell id="TkWctTb4kfssdJq24P7h-25" value="" style="ellipse;whiteSpace=wrap;html=1;aspect=fixed;fillColor=#1ba1e2;strokeColor=#006EAF;fontColor=#ffffff;" parent="TkWctTb4kfssdJq24P7h-1" vertex="1">
          <mxGeometry x="375" y="60" width="10" height="10" as="geometry" />
        </mxCell>
        <mxCell id="TkWctTb4kfssdJq24P7h-28" value="RC v1.1" style="text;html=1;strokeColor=none;fillColor=none;align=center;verticalAlign=middle;whiteSpace=wrap;rounded=0;fontSize=8;fontStyle=1" parent="TkWctTb4kfssdJq24P7h-1" vertex="1">
          <mxGeometry x="335" y="50" width="40" height="20" as="geometry" />
        </mxCell>
        <mxCell id="TkWctTb4kfssdJq24P7h-29" value="" style="edgeStyle=none;rounded=0;orthogonalLoop=1;jettySize=auto;html=1;fontSize=10;fontColor=#000000;exitX=1;exitY=0.5;exitDx=0;exitDy=0;" parent="TkWctTb4kfssdJq24P7h-1" source="TkWctTb4kfssdJq24P7h-35" target="TkWctTb4kfssdJq24P7h-34" edge="1">
          <mxGeometry relative="1" as="geometry" />
        </mxCell>
        <mxCell id="NBKaRx2GH61TC7q8MGm5-10" value="" style="edgeStyle=orthogonalEdgeStyle;rounded=0;orthogonalLoop=1;jettySize=auto;html=1;" edge="1" parent="TkWctTb4kfssdJq24P7h-1" source="TkWctTb4kfssdJq24P7h-30" target="NBKaRx2GH61TC7q8MGm5-9">
          <mxGeometry relative="1" as="geometry" />
        </mxCell>
        <mxCell id="TkWctTb4kfssdJq24P7h-30" value="" style="ellipse;whiteSpace=wrap;html=1;aspect=fixed;fillColor=#1ba1e2;strokeColor=#006EAF;fontColor=#ffffff;" parent="TkWctTb4kfssdJq24P7h-1" vertex="1">
          <mxGeometry x="375" y="190" width="10" height="10" as="geometry" />
        </mxCell>
        <mxCell id="TkWctTb4kfssdJq24P7h-31" value="" style="edgeStyle=none;rounded=0;orthogonalLoop=1;jettySize=auto;html=1;fontSize=10;fontColor=#000000;" parent="TkWctTb4kfssdJq24P7h-1" source="TkWctTb4kfssdJq24P7h-32" target="TkWctTb4kfssdJq24P7h-35" edge="1">
          <mxGeometry relative="1" as="geometry" />
        </mxCell>
        <mxCell id="TkWctTb4kfssdJq24P7h-32" value="" style="ellipse;whiteSpace=wrap;html=1;aspect=fixed;fillColor=#e51400;strokeColor=#B20000;fontColor=#ffffff;" parent="TkWctTb4kfssdJq24P7h-1" vertex="1">
          <mxGeometry x="135" y="250" width="10" height="10" as="geometry" />
        </mxCell>
        <mxCell id="TkWctTb4kfssdJq24P7h-33" value="" style="edgeStyle=none;rounded=0;orthogonalLoop=1;jettySize=auto;html=1;fontSize=10;fontColor=#000000;entryX=1;entryY=0.5;entryDx=0;entryDy=0;exitX=0;exitY=0.5;exitDx=0;exitDy=0;" parent="TkWctTb4kfssdJq24P7h-1" source="NBKaRx2GH61TC7q8MGm5-9" target="TkWctTb4kfssdJq24P7h-32" edge="1">
          <mxGeometry relative="1" as="geometry">
            <mxPoint x="350" y="220" as="sourcePoint" />
            <mxPoint x="170" y="290" as="targetPoint" />
          </mxGeometry>
        </mxCell>
        <mxCell id="TkWctTb4kfssdJq24P7h-34" value="" style="ellipse;whiteSpace=wrap;html=1;aspect=fixed;fillColor=#1ba1e2;strokeColor=#006EAF;fontColor=#ffffff;" parent="TkWctTb4kfssdJq24P7h-1" vertex="1">
          <mxGeometry x="375" y="295" width="10" height="10" as="geometry" />
        </mxCell>
        <mxCell id="TkWctTb4kfssdJq24P7h-35" value="" style="ellipse;whiteSpace=wrap;html=1;aspect=fixed;fillColor=#e51400;strokeColor=#B20000;fontColor=#ffffff;" parent="TkWctTb4kfssdJq24P7h-1" vertex="1">
          <mxGeometry x="135" y="280" width="10" height="10" as="geometry" />
        </mxCell>
        <mxCell id="TkWctTb4kfssdJq24P7h-36" value="RC v1.1.0" style="text;html=1;strokeColor=none;fillColor=none;align=center;verticalAlign=middle;whiteSpace=wrap;rounded=0;fontSize=8;" parent="TkWctTb4kfssdJq24P7h-1" vertex="1">
          <mxGeometry x="390" y="220" width="40" height="20" as="geometry" />
        </mxCell>
        <mxCell id="TkWctTb4kfssdJq24P7h-37" value="" style="edgeStyle=none;rounded=0;orthogonalLoop=1;jettySize=auto;html=1;fontSize=10;fontColor=#000000;" parent="TkWctTb4kfssdJq24P7h-1" source="TkWctTb4kfssdJq24P7h-38" target="TkWctTb4kfssdJq24P7h-70" edge="1">
          <mxGeometry relative="1" as="geometry" />
        </mxCell>
        <mxCell id="TkWctTb4kfssdJq24P7h-38" value="" style="ellipse;whiteSpace=wrap;html=1;aspect=fixed;fillColor=#ffcd28;strokeColor=#d79b00;gradientColor=#ffa500;" parent="TkWctTb4kfssdJq24P7h-1" vertex="1">
          <mxGeometry x="455" y="309" width="10" height="10" as="geometry" />
        </mxCell>
        <mxCell id="TkWctTb4kfssdJq24P7h-39" value="" style="edgeStyle=none;rounded=0;orthogonalLoop=1;jettySize=auto;html=1;fontSize=10;fontColor=#000000;exitX=1;exitY=0.5;exitDx=0;exitDy=0;entryX=0;entryY=0.5;entryDx=0;entryDy=0;" parent="TkWctTb4kfssdJq24P7h-1" source="TkWctTb4kfssdJq24P7h-34" target="TkWctTb4kfssdJq24P7h-38" edge="1">
          <mxGeometry relative="1" as="geometry">
            <mxPoint x="270" y="360" as="sourcePoint" />
            <mxPoint x="340.35273952181046" y="388.1552859170546" as="targetPoint" />
          </mxGeometry>
        </mxCell>
        <mxCell id="TkWctTb4kfssdJq24P7h-40" value="" style="edgeStyle=none;rounded=0;orthogonalLoop=1;jettySize=auto;html=1;fontSize=10;fontColor=#000000;" parent="TkWctTb4kfssdJq24P7h-1" source="TkWctTb4kfssdJq24P7h-41" target="TkWctTb4kfssdJq24P7h-43" edge="1">
          <mxGeometry relative="1" as="geometry" />
        </mxCell>
        <mxCell id="TkWctTb4kfssdJq24P7h-41" value="" style="ellipse;whiteSpace=wrap;html=1;aspect=fixed;fillColor=#ffcd28;strokeColor=#d79b00;gradientColor=#ffa500;" parent="TkWctTb4kfssdJq24P7h-1" vertex="1">
          <mxGeometry x="455" y="170" width="10" height="10" as="geometry" />
        </mxCell>
        <mxCell id="TkWctTb4kfssdJq24P7h-42" value="" style="edgeStyle=none;rounded=0;orthogonalLoop=1;jettySize=auto;html=1;fontSize=10;fontColor=#000000;" parent="TkWctTb4kfssdJq24P7h-1" source="TkWctTb4kfssdJq24P7h-43" target="TkWctTb4kfssdJq24P7h-38" edge="1">
          <mxGeometry relative="1" as="geometry" />
        </mxCell>
        <mxCell id="TkWctTb4kfssdJq24P7h-43" value="" style="ellipse;whiteSpace=wrap;html=1;aspect=fixed;fillColor=#ffcd28;strokeColor=#d79b00;gradientColor=#ffa500;" parent="TkWctTb4kfssdJq24P7h-1" vertex="1">
          <mxGeometry x="455" y="260" width="10" height="10" as="geometry" />
        </mxCell>
        <mxCell id="TkWctTb4kfssdJq24P7h-44" value="Hotfixes" style="text;html=1;strokeColor=none;fillColor=none;align=center;verticalAlign=middle;whiteSpace=wrap;rounded=0;fontColor=#999999;fontStyle=1" parent="TkWctTb4kfssdJq24P7h-1" vertex="1">
          <mxGeometry x="510" y="20" width="60" height="20" as="geometry" />
        </mxCell>
        <mxCell id="TkWctTb4kfssdJq24P7h-45" value="" style="edgeStyle=none;rounded=0;orthogonalLoop=1;jettySize=auto;html=1;fontSize=10;fontColor=#000000;" parent="TkWctTb4kfssdJq24P7h-1" source="TkWctTb4kfssdJq24P7h-46" target="TkWctTb4kfssdJq24P7h-49" edge="1">
          <mxGeometry relative="1" as="geometry" />
        </mxCell>
        <mxCell id="TkWctTb4kfssdJq24P7h-46" value="" style="ellipse;whiteSpace=wrap;html=1;aspect=fixed;fillColor=#e51400;strokeColor=#B20000;fontColor=#ffffff;" parent="TkWctTb4kfssdJq24P7h-1" vertex="1">
          <mxGeometry x="535" y="110" width="10" height="10" as="geometry" />
        </mxCell>
        <mxCell id="TkWctTb4kfssdJq24P7h-47" value="" style="endArrow=classic;html=1;exitX=0;exitY=1;exitDx=0;exitDy=0;entryX=1;entryY=0;entryDx=0;entryDy=0;" parent="TkWctTb4kfssdJq24P7h-1" source="TkWctTb4kfssdJq24P7h-8" target="TkWctTb4kfssdJq24P7h-46" edge="1">
          <mxGeometry width="50" height="50" relative="1" as="geometry">
            <mxPoint x="625" y="95" as="sourcePoint" />
            <mxPoint x="544" y="121" as="targetPoint" />
          </mxGeometry>
        </mxCell>
        <mxCell id="TkWctTb4kfssdJq24P7h-48" value="" style="endArrow=classic;html=1;entryX=0.881;entryY=0.375;entryDx=0;entryDy=0;entryPerimeter=0;exitX=0.005;exitY=0.812;exitDx=0;exitDy=0;exitPerimeter=0;" parent="TkWctTb4kfssdJq24P7h-1" source="TkWctTb4kfssdJq24P7h-49" target="TkWctTb4kfssdJq24P7h-41" edge="1">
          <mxGeometry width="50" height="50" relative="1" as="geometry">
            <mxPoint x="536" y="174" as="sourcePoint" />
            <mxPoint x="479.99553390593286" y="186.46446609406723" as="targetPoint" />
          </mxGeometry>
        </mxCell>
        <mxCell id="TkWctTb4kfssdJq24P7h-49" value="" style="ellipse;whiteSpace=wrap;html=1;aspect=fixed;fillColor=#e51400;strokeColor=#B20000;fontColor=#ffffff;" parent="TkWctTb4kfssdJq24P7h-1" vertex="1">
          <mxGeometry x="535" y="140" width="10" height="10" as="geometry" />
        </mxCell>
        <mxCell id="TkWctTb4kfssdJq24P7h-50" value="" style="edgeStyle=none;rounded=0;orthogonalLoop=1;jettySize=auto;html=1;fontSize=10;fontColor=#000000;" parent="TkWctTb4kfssdJq24P7h-1" source="TkWctTb4kfssdJq24P7h-51" target="TkWctTb4kfssdJq24P7h-58" edge="1">
          <mxGeometry relative="1" as="geometry" />
        </mxCell>
        <mxCell id="TkWctTb4kfssdJq24P7h-51" value="" style="ellipse;whiteSpace=wrap;html=1;aspect=fixed;fillColor=#008a00;strokeColor=#005700;fontColor=#ffffff;" parent="TkWctTb4kfssdJq24P7h-1" vertex="1">
          <mxGeometry x="615" y="170" width="10" height="10" as="geometry" />
        </mxCell>
        <mxCell id="TkWctTb4kfssdJq24P7h-52" value="" style="endArrow=classic;html=1;exitX=1;exitY=1;exitDx=0;exitDy=0;" parent="TkWctTb4kfssdJq24P7h-1" source="TkWctTb4kfssdJq24P7h-49" edge="1">
          <mxGeometry width="50" height="50" relative="1" as="geometry">
            <mxPoint x="545.0500000000001" y="158.11999999999995" as="sourcePoint" />
            <mxPoint x="616" y="173" as="targetPoint" />
          </mxGeometry>
        </mxCell>
        <mxCell id="TkWctTb4kfssdJq24P7h-53" value="v1.0.1" style="text;html=1;strokeColor=#005700;fillColor=#008a00;align=center;verticalAlign=middle;whiteSpace=wrap;rounded=0;fontSize=10;fontColor=#ffffff;" parent="TkWctTb4kfssdJq24P7h-1" vertex="1">
          <mxGeometry x="630" y="165" width="40" height="20" as="geometry" />
        </mxCell>
        <mxCell id="TkWctTb4kfssdJq24P7h-54" value="" style="edgeStyle=none;rounded=0;orthogonalLoop=1;jettySize=auto;html=1;fontSize=10;fontColor=#000000;" parent="TkWctTb4kfssdJq24P7h-1" source="TkWctTb4kfssdJq24P7h-55" target="TkWctTb4kfssdJq24P7h-87" edge="1">
          <mxGeometry relative="1" as="geometry" />
        </mxCell>
        <mxCell id="TkWctTb4kfssdJq24P7h-55" value="" style="ellipse;whiteSpace=wrap;html=1;aspect=fixed;fillColor=#d80073;strokeColor=#A50040;fontColor=#ffffff;" parent="TkWctTb4kfssdJq24P7h-1" vertex="1">
          <mxGeometry x="535" y="185" width="10" height="10" as="geometry" />
        </mxCell>
        <mxCell id="TkWctTb4kfssdJq24P7h-56" value="" style="endArrow=classic;html=1;exitX=0;exitY=1;exitDx=0;exitDy=0;entryX=0.923;entryY=0.41;entryDx=0;entryDy=0;entryPerimeter=0;" parent="TkWctTb4kfssdJq24P7h-1" source="TkWctTb4kfssdJq24P7h-51" target="TkWctTb4kfssdJq24P7h-55" edge="1">
          <mxGeometry width="50" height="50" relative="1" as="geometry">
            <mxPoint x="569.9955339059153" y="219.99553390591527" as="sourcePoint" />
            <mxPoint x="642.46" y="244.46" as="targetPoint" />
          </mxGeometry>
        </mxCell>
        <mxCell id="TkWctTb4kfssdJq24P7h-58" value="" style="ellipse;whiteSpace=wrap;html=1;aspect=fixed;fillColor=#008a00;strokeColor=#005700;fontColor=#ffffff;" parent="TkWctTb4kfssdJq24P7h-1" vertex="1">
          <mxGeometry x="615" y="260" width="10" height="10" as="geometry" />
        </mxCell>
        <mxCell id="TkWctTb4kfssdJq24P7h-59" value="" style="endArrow=classic;html=1;entryX=0.084;entryY=0.41;entryDx=0;entryDy=0;entryPerimeter=0;exitX=1;exitY=0.5;exitDx=0;exitDy=0;" parent="TkWctTb4kfssdJq24P7h-1" source="TkWctTb4kfssdJq24P7h-88" target="TkWctTb4kfssdJq24P7h-58" edge="1">
          <mxGeometry width="50" height="50" relative="1" as="geometry">
            <mxPoint x="590" y="320" as="sourcePoint" />
            <mxPoint x="527.7699999999999" y="267.78000000000003" as="targetPoint" />
          </mxGeometry>
        </mxCell>
        <mxCell id="TkWctTb4kfssdJq24P7h-60" value="" style="endArrow=classic;html=1;entryX=1.019;entryY=0.361;entryDx=0;entryDy=0;entryPerimeter=0;exitX=0;exitY=0.5;exitDx=0;exitDy=0;" parent="TkWctTb4kfssdJq24P7h-1" source="TkWctTb4kfssdJq24P7h-88" target="TkWctTb4kfssdJq24P7h-43" edge="1">
          <mxGeometry width="50" height="50" relative="1" as="geometry">
            <mxPoint x="520" y="300" as="sourcePoint" />
            <mxPoint x="519.9999999999999" y="250.56000000000003" as="targetPoint" />
          </mxGeometry>
        </mxCell>
        <mxCell id="TkWctTb4kfssdJq24P7h-61" value="v1.0.2" style="text;html=1;strokeColor=#005700;fillColor=#008a00;align=center;verticalAlign=middle;whiteSpace=wrap;rounded=0;fontSize=10;fontColor=#ffffff;" parent="TkWctTb4kfssdJq24P7h-1" vertex="1">
          <mxGeometry x="630" y="255" width="40" height="20" as="geometry" />
        </mxCell>
        <mxCell id="TkWctTb4kfssdJq24P7h-62" value="" style="edgeStyle=none;rounded=0;orthogonalLoop=1;jettySize=auto;html=1;fontSize=10;fontColor=#000000;" parent="TkWctTb4kfssdJq24P7h-1" source="TkWctTb4kfssdJq24P7h-63" target="TkWctTb4kfssdJq24P7h-71" edge="1">
          <mxGeometry relative="1" as="geometry" />
        </mxCell>
        <mxCell id="TkWctTb4kfssdJq24P7h-63" value="" style="ellipse;whiteSpace=wrap;html=1;aspect=fixed;fillColor=#008a00;strokeColor=#005700;fontColor=#ffffff;" parent="TkWctTb4kfssdJq24P7h-1" vertex="1">
          <mxGeometry x="696" y="309" width="10" height="10" as="geometry" />
        </mxCell>
        <mxCell id="TkWctTb4kfssdJq24P7h-64" value="" style="edgeStyle=none;rounded=0;orthogonalLoop=1;jettySize=auto;html=1;fontSize=10;fontColor=#000000;exitX=1;exitY=0.5;exitDx=0;exitDy=0;entryX=0;entryY=0.5;entryDx=0;entryDy=0;" parent="TkWctTb4kfssdJq24P7h-1" source="TkWctTb4kfssdJq24P7h-38" target="TkWctTb4kfssdJq24P7h-63" edge="1">
          <mxGeometry relative="1" as="geometry">
            <mxPoint x="545" y="249" as="sourcePoint" />
            <mxPoint x="545" y="369" as="targetPoint" />
          </mxGeometry>
        </mxCell>
        <mxCell id="TkWctTb4kfssdJq24P7h-65" value="v1.1.1" style="text;html=1;strokeColor=#005700;fillColor=#008a00;align=center;verticalAlign=middle;whiteSpace=wrap;rounded=0;fontSize=10;fontColor=#ffffff;" parent="TkWctTb4kfssdJq24P7h-1" vertex="1">
          <mxGeometry x="711" y="304" width="40" height="20" as="geometry" />
        </mxCell>
        <mxCell id="TkWctTb4kfssdJq24P7h-66" value="" style="edgeStyle=none;rounded=0;orthogonalLoop=1;jettySize=auto;html=1;fontSize=10;fontColor=#000000;exitX=0;exitY=1;exitDx=0;exitDy=0;" parent="TkWctTb4kfssdJq24P7h-1" source="TkWctTb4kfssdJq24P7h-63" target="TkWctTb4kfssdJq24P7h-67" edge="1">
          <mxGeometry relative="1" as="geometry">
            <mxPoint x="540" y="269" as="sourcePoint" />
          </mxGeometry>
        </mxCell>
        <mxCell id="TkWctTb4kfssdJq24P7h-67" value="" style="ellipse;whiteSpace=wrap;html=1;aspect=fixed;fillColor=#e51400;strokeColor=#B20000;fontColor=#ffffff;" parent="TkWctTb4kfssdJq24P7h-1" vertex="1">
          <mxGeometry x="535" y="359" width="10" height="10" as="geometry" />
        </mxCell>
        <mxCell id="TkWctTb4kfssdJq24P7h-68" value="" style="edgeStyle=none;rounded=0;orthogonalLoop=1;jettySize=auto;html=1;fontSize=10;fontColor=#000000;exitX=0.5;exitY=1;exitDx=0;exitDy=0;" parent="TkWctTb4kfssdJq24P7h-1" source="TkWctTb4kfssdJq24P7h-67" target="TkWctTb4kfssdJq24P7h-69" edge="1">
          <mxGeometry relative="1" as="geometry">
            <mxPoint x="540" y="369" as="sourcePoint" />
          </mxGeometry>
        </mxCell>
        <mxCell id="TkWctTb4kfssdJq24P7h-69" value="" style="ellipse;whiteSpace=wrap;html=1;aspect=fixed;fillColor=#e51400;strokeColor=#B20000;fontColor=#ffffff;" parent="TkWctTb4kfssdJq24P7h-1" vertex="1">
          <mxGeometry x="535" y="394" width="10" height="10" as="geometry" />
        </mxCell>
        <mxCell id="TkWctTb4kfssdJq24P7h-70" value="" style="ellipse;whiteSpace=wrap;html=1;aspect=fixed;fillColor=#ffcd28;strokeColor=#d79b00;gradientColor=#ffa500;" parent="TkWctTb4kfssdJq24P7h-1" vertex="1">
          <mxGeometry x="455" y="409" width="10" height="10" as="geometry" />
        </mxCell>
        <mxCell id="TkWctTb4kfssdJq24P7h-71" value="" style="ellipse;whiteSpace=wrap;html=1;aspect=fixed;fillColor=#008a00;strokeColor=#005700;fontColor=#ffffff;" parent="TkWctTb4kfssdJq24P7h-1" vertex="1">
          <mxGeometry x="696" y="409" width="10" height="10" as="geometry" />
        </mxCell>
        <mxCell id="TkWctTb4kfssdJq24P7h-72" value="" style="edgeStyle=none;rounded=0;orthogonalLoop=1;jettySize=auto;html=1;fontSize=10;fontColor=#000000;exitX=1;exitY=0.5;exitDx=0;exitDy=0;entryX=0;entryY=0.5;entryDx=0;entryDy=0;" parent="TkWctTb4kfssdJq24P7h-1" source="TkWctTb4kfssdJq24P7h-69" target="TkWctTb4kfssdJq24P7h-71" edge="1">
          <mxGeometry relative="1" as="geometry">
            <mxPoint x="560" y="389" as="sourcePoint" />
            <mxPoint x="560" y="419" as="targetPoint" />
          </mxGeometry>
        </mxCell>
        <mxCell id="TkWctTb4kfssdJq24P7h-73" value="" style="edgeStyle=none;rounded=0;orthogonalLoop=1;jettySize=auto;html=1;fontSize=10;fontColor=#000000;exitX=0;exitY=0.5;exitDx=0;exitDy=0;entryX=1;entryY=0.5;entryDx=0;entryDy=0;" parent="TkWctTb4kfssdJq24P7h-1" source="TkWctTb4kfssdJq24P7h-69" target="TkWctTb4kfssdJq24P7h-70" edge="1">
          <mxGeometry relative="1" as="geometry">
            <mxPoint x="520" y="389" as="sourcePoint" />
            <mxPoint x="520" y="419" as="targetPoint" />
          </mxGeometry>
        </mxCell>
        <mxCell id="TkWctTb4kfssdJq24P7h-74" value="v1.1.2" style="text;html=1;strokeColor=#005700;fillColor=#008a00;align=center;verticalAlign=middle;whiteSpace=wrap;rounded=0;fontSize=10;fontColor=#ffffff;" parent="TkWctTb4kfssdJq24P7h-1" vertex="1">
          <mxGeometry x="711" y="399" width="40" height="20" as="geometry" />
        </mxCell>
        <mxCell id="TkWctTb4kfssdJq24P7h-75" value="" style="shape=curlyBracket;whiteSpace=wrap;html=1;rounded=1;fontSize=10;fontColor=#000000;" parent="TkWctTb4kfssdJq24P7h-1" vertex="1">
          <mxGeometry x="80" y="80" width="20" height="120" as="geometry" />
        </mxCell>
        <mxCell id="TkWctTb4kfssdJq24P7h-76" value="v1.1 Development statement" style="text;html=1;strokeColor=none;fillColor=none;align=center;verticalAlign=middle;whiteSpace=wrap;rounded=0;fontSize=10;fontColor=#000000;" parent="TkWctTb4kfssdJq24P7h-1" vertex="1">
          <mxGeometry x="20" y="130" width="40" height="20" as="geometry" />
        </mxCell>
        <mxCell id="TkWctTb4kfssdJq24P7h-77" value="" style="shape=curlyBracket;whiteSpace=wrap;html=1;rounded=1;fontSize=10;fontColor=#000000;" parent="TkWctTb4kfssdJq24P7h-1" vertex="1">
          <mxGeometry x="80" y="200" width="20" height="120" as="geometry" />
        </mxCell>
        <mxCell id="TkWctTb4kfssdJq24P7h-78" value="v1.1 Test/Hotfixes statement" style="text;html=1;strokeColor=none;fillColor=none;align=center;verticalAlign=middle;whiteSpace=wrap;rounded=0;fontSize=10;fontColor=#000000;" parent="TkWctTb4kfssdJq24P7h-1" vertex="1">
          <mxGeometry x="20" y="250" width="40" height="20" as="geometry" />
        </mxCell>
        <mxCell id="TkWctTb4kfssdJq24P7h-79" value="" style="shape=curlyBracket;whiteSpace=wrap;html=1;rounded=1;fontSize=10;fontColor=#000000;direction=west;" parent="TkWctTb4kfssdJq24P7h-1" vertex="1">
          <mxGeometry x="760" y="289" width="20" height="40" as="geometry" />
        </mxCell>
        <mxCell id="TkWctTb4kfssdJq24P7h-80" value="v1.1.x Release statement" style="text;html=1;strokeColor=none;fillColor=none;align=center;verticalAlign=middle;whiteSpace=wrap;rounded=0;fontSize=10;fontColor=#000000;" parent="TkWctTb4kfssdJq24P7h-1" vertex="1">
          <mxGeometry x="800" y="299" width="40" height="20" as="geometry" />
        </mxCell>
        <mxCell id="TkWctTb4kfssdJq24P7h-81" value="" style="shape=curlyBracket;whiteSpace=wrap;html=1;rounded=1;fontSize=10;fontColor=#000000;direction=west;" parent="TkWctTb4kfssdJq24P7h-1" vertex="1">
          <mxGeometry x="760" y="329" width="20" height="100" as="geometry" />
        </mxCell>
        <mxCell id="TkWctTb4kfssdJq24P7h-82" value="v1.1.x Hotfixes statement" style="text;html=1;strokeColor=none;fillColor=none;align=center;verticalAlign=middle;whiteSpace=wrap;rounded=0;fontSize=10;fontColor=#000000;" parent="TkWctTb4kfssdJq24P7h-1" vertex="1">
          <mxGeometry x="800" y="369" width="40" height="20" as="geometry" />
        </mxCell>
        <mxCell id="TkWctTb4kfssdJq24P7h-83" value="" style="shape=curlyBracket;whiteSpace=wrap;html=1;rounded=1;fontSize=10;fontColor=#000000;direction=west;" parent="TkWctTb4kfssdJq24P7h-1" vertex="1">
          <mxGeometry x="760" y="50" width="20" height="230" as="geometry" />
        </mxCell>
        <mxCell id="TkWctTb4kfssdJq24P7h-84" value="v1.0.x Hotfixes statement" style="text;html=1;strokeColor=none;fillColor=none;align=center;verticalAlign=middle;whiteSpace=wrap;rounded=0;fontSize=10;fontColor=#000000;" parent="TkWctTb4kfssdJq24P7h-1" vertex="1">
          <mxGeometry x="800" y="150" width="40" height="20" as="geometry" />
        </mxCell>
        <mxCell id="TkWctTb4kfssdJq24P7h-86" value="" style="edgeStyle=none;rounded=0;orthogonalLoop=1;jettySize=auto;html=1;fontSize=10;fontColor=#000000;" parent="TkWctTb4kfssdJq24P7h-1" source="TkWctTb4kfssdJq24P7h-87" target="TkWctTb4kfssdJq24P7h-88" edge="1">
          <mxGeometry relative="1" as="geometry" />
        </mxCell>
        <mxCell id="TkWctTb4kfssdJq24P7h-87" value="" style="ellipse;whiteSpace=wrap;html=1;aspect=fixed;fillColor=#d80073;strokeColor=#A50040;fontColor=#ffffff;" parent="TkWctTb4kfssdJq24P7h-1" vertex="1">
          <mxGeometry x="535" y="215" width="10" height="10" as="geometry" />
        </mxCell>
        <mxCell id="TkWctTb4kfssdJq24P7h-88" value="" style="ellipse;whiteSpace=wrap;html=1;aspect=fixed;fillColor=#d80073;strokeColor=#A50040;fontColor=#ffffff;" parent="TkWctTb4kfssdJq24P7h-1" vertex="1">
          <mxGeometry x="535" y="240" width="10" height="10" as="geometry" />
        </mxCell>
        <mxCell id="TkWctTb4kfssdJq24P7h-90" value="" style="shape=curlyBracket;whiteSpace=wrap;html=1;rounded=1;fontSize=10;fontColor=#000000;" parent="TkWctTb4kfssdJq24P7h-1" vertex="1">
          <mxGeometry x="80" y="10" width="20" height="40" as="geometry" />
        </mxCell>
        <mxCell id="TkWctTb4kfssdJq24P7h-91" value="" style="endArrow=classic;html=1;entryX=1;entryY=0.5;entryDx=0;entryDy=0;exitX=0;exitY=0.5;exitDx=0;exitDy=0;" parent="TkWctTb4kfssdJq24P7h-1" source="TkWctTb4kfssdJq24P7h-43" target="TkWctTb4kfssdJq24P7h-34" edge="1">
          <mxGeometry width="50" height="50" relative="1" as="geometry">
            <mxPoint x="374.81" y="270" as="sourcePoint" />
            <mxPoint x="305.00000000000006" y="288.61" as="targetPoint" />
          </mxGeometry>
        </mxCell>
        <mxCell id="TkWctTb4kfssdJq24P7h-92" value="v1.1" style="text;html=1;strokeColor=none;fillColor=none;align=center;verticalAlign=middle;whiteSpace=wrap;rounded=0;fontStyle=1" parent="TkWctTb4kfssdJq24P7h-1" vertex="1">
          <mxGeometry x="680" y="20" width="40" height="20" as="geometry" />
        </mxCell>
        <mxCell id="gcjvndC-76lZbf_1bBcf-0" value="&lt;font color=&quot;#b3b3b3&quot;&gt;Local&lt;/font&gt;&lt;br&gt;Origin&lt;br&gt;&lt;i&gt;Origin Temporary&lt;/i&gt;" style="text;html=1;strokeColor=none;fillColor=none;align=left;verticalAlign=middle;whiteSpace=wrap;rounded=0;fontSize=10;fontColor=#000000;fontStyle=1" parent="TkWctTb4kfssdJq24P7h-1" vertex="1">
          <mxGeometry y="5" width="100" height="50" as="geometry" />
        </mxCell>
        <mxCell id="NBKaRx2GH61TC7q8MGm5-3" value="" style="endArrow=classic;html=1;entryX=1;entryY=0.5;entryDx=0;entryDy=0;exitX=0;exitY=0.5;exitDx=0;exitDy=0;" edge="1" parent="TkWctTb4kfssdJq24P7h-1" source="TkWctTb4kfssdJq24P7h-10" target="TkWctTb4kfssdJq24P7h-25">
          <mxGeometry width="50" height="50" relative="1" as="geometry">
            <mxPoint x="456.23999999999995" y="100" as="sourcePoint" />
            <mxPoint x="384.99999999999994" y="125.63" as="targetPoint" />
          </mxGeometry>
        </mxCell>
        <mxCell id="NBKaRx2GH61TC7q8MGm5-4" value="" style="endArrow=classic;html=1;exitX=0;exitY=0.5;exitDx=0;exitDy=0;" edge="1" parent="TkWctTb4kfssdJq24P7h-1" source="TkWctTb4kfssdJq24P7h-25">
          <mxGeometry width="50" height="50" relative="1" as="geometry">
            <mxPoint x="360" y="65" as="sourcePoint" />
            <mxPoint x="304" y="101" as="targetPoint" />
          </mxGeometry>
        </mxCell>
        <mxCell id="NBKaRx2GH61TC7q8MGm5-5" value="" style="endArrow=classic;html=1;entryX=1;entryY=0.5;entryDx=0;entryDy=0;exitX=0;exitY=0.5;exitDx=0;exitDy=0;" edge="1" parent="TkWctTb4kfssdJq24P7h-1" source="TkWctTb4kfssdJq24P7h-25" target="TkWctTb4kfssdJq24P7h-13">
          <mxGeometry width="50" height="50" relative="1" as="geometry">
            <mxPoint x="380" y="65" as="sourcePoint" />
            <mxPoint x="404.9999999999859" y="85" as="targetPoint" />
          </mxGeometry>
        </mxCell>
        <mxCell id="NBKaRx2GH61TC7q8MGm5-6" value="" style="endArrow=classic;html=1;entryX=0;entryY=0.5;entryDx=0;entryDy=0;exitX=1;exitY=1;exitDx=0;exitDy=0;" edge="1" parent="TkWctTb4kfssdJq24P7h-1" source="TkWctTb4kfssdJq24P7h-18" target="TkWctTb4kfssdJq24P7h-30">
          <mxGeometry width="50" height="50" relative="1" as="geometry">
            <mxPoint x="320" y="185" as="sourcePoint" />
            <mxPoint x="249.9999999999859" y="195" as="targetPoint" />
          </mxGeometry>
        </mxCell>
        <mxCell id="NBKaRx2GH61TC7q8MGm5-7" value="" style="endArrow=classic;html=1;entryX=0;entryY=0.5;entryDx=0;entryDy=0;exitX=1;exitY=0.5;exitDx=0;exitDy=0;" edge="1" parent="TkWctTb4kfssdJq24P7h-1" source="TkWctTb4kfssdJq24P7h-19" target="TkWctTb4kfssdJq24P7h-30">
          <mxGeometry width="50" height="50" relative="1" as="geometry">
            <mxPoint x="260" y="205" as="sourcePoint" />
            <mxPoint x="189.9999999999859" y="215" as="targetPoint" />
          </mxGeometry>
        </mxCell>
        <mxCell id="NBKaRx2GH61TC7q8MGm5-8" value="" style="endArrow=classic;html=1;entryX=1;entryY=0.5;entryDx=0;entryDy=0;exitX=0;exitY=0.5;exitDx=0;exitDy=0;" edge="1" parent="TkWctTb4kfssdJq24P7h-1" source="TkWctTb4kfssdJq24P7h-41" target="TkWctTb4kfssdJq24P7h-30">
          <mxGeometry width="50" height="50" relative="1" as="geometry">
            <mxPoint x="430" y="205" as="sourcePoint" />
            <mxPoint x="359.9999999999859" y="215" as="targetPoint" />
          </mxGeometry>
        </mxCell>
        <mxCell id="NBKaRx2GH61TC7q8MGm5-12" value="" style="edgeStyle=orthogonalEdgeStyle;rounded=0;orthogonalLoop=1;jettySize=auto;html=1;entryX=0.512;entryY=0.127;entryDx=0;entryDy=0;entryPerimeter=0;" edge="1" parent="TkWctTb4kfssdJq24P7h-1" source="NBKaRx2GH61TC7q8MGm5-9" target="TkWctTb4kfssdJq24P7h-34">
          <mxGeometry relative="1" as="geometry">
            <mxPoint x="380" y="280" as="targetPoint" />
          </mxGeometry>
        </mxCell>
        <mxCell id="NBKaRx2GH61TC7q8MGm5-9" value="" style="ellipse;whiteSpace=wrap;html=1;aspect=fixed;fillColor=#1ba1e2;strokeColor=#006EAF;fontColor=#ffffff;" vertex="1" parent="TkWctTb4kfssdJq24P7h-1">
          <mxGeometry x="375" y="225" width="10" height="10" as="geometry" />
        </mxCell>
      </root>
    </mxGraphModel>
  </diagram>
</mxfile>
